<svg aria-hidden="true" style="position: absolute; width: 0; height: 0; overflow: hidden;" version="1.1" xmlns="http://www.w3.org/2000/svg" xmlns:xlink="http://www.w3.org/1999/xlink">
<defs>
<symbol id="icon-instagram" viewBox="0 0 32 32">
<path d="M31.969 9.408c-0.075-1.7-0.35-2.869-0.744-3.882-0.406-1.075-1.032-2.038-1.851-2.838-0.8-0.813-1.769-1.444-2.832-1.844-1.019-0.394-2.182-0.669-3.882-0.744-1.713-0.081-2.257-0.1-6.601-0.1s-4.888 0.019-6.595 0.094c-1.7 0.075-2.869 0.35-3.882 0.744-1.075 0.406-2.038 1.031-2.838 1.85-0.813 0.8-1.444 1.769-1.844 2.832-0.394 1.019-0.669 2.182-0.744 3.882-0.081 1.713-0.1 2.257-0.1 6.601s0.019 4.888 0.094 6.595c0.075 1.7 0.35 2.869 0.744 3.882 0.406 1.075 1.038 2.038 1.85 2.838 0.8 0.813 1.769 1.444 2.832 1.844 1.019 0.394 2.182 0.669 3.882 0.744 1.706 0.075 2.25 0.094 6.595 0.094s4.888-0.019 6.595-0.094c1.7-0.075 2.869-0.35 3.882-0.744 2.151-0.832 3.851-2.532 4.682-4.682 0.394-1.019 0.669-2.182 0.744-3.882 0.075-1.707 0.094-2.251 0.094-6.595s-0.006-4.888-0.081-6.595zM29.087 22.473c-0.069 1.563-0.331 2.407-0.55 2.969-0.538 1.394-1.644 2.5-3.038 3.038-0.563 0.219-1.413 0.481-2.969 0.55-1.688 0.075-2.194 0.094-6.464 0.094s-4.782-0.019-6.464-0.094c-1.563-0.069-2.407-0.331-2.969-0.55-0.694-0.256-1.325-0.663-1.838-1.194-0.531-0.519-0.938-1.144-1.194-1.838-0.219-0.563-0.481-1.413-0.55-2.969-0.075-1.688-0.094-2.194-0.094-6.464s0.019-4.782 0.094-6.464c0.069-1.563 0.331-2.407 0.55-2.969 0.256-0.694 0.663-1.325 1.2-1.838 0.519-0.531 1.144-0.938 1.838-1.194 0.563-0.219 1.413-0.481 2.969-0.55 1.688-0.075 2.194-0.094 6.464-0.094 4.276 0 4.782 0.019 6.464 0.094 1.563 0.069 2.407 0.331 2.969 0.55 0.694 0.256 1.325 0.662 1.838 1.194 0.531 0.519 0.938 1.144 1.194 1.838 0.219 0.563 0.481 1.413 0.55 2.969 0.075 1.688 0.094 2.194 0.094 6.464s-0.019 4.77-0.094 6.458z"></path>
<path d="M16.059 7.783c-4.538 0-8.22 3.682-8.22 8.22s3.682 8.22 8.22 8.22c4.539 0 8.22-3.682 8.22-8.22s-3.682-8.22-8.22-8.22zM16.059 21.335c-2.944 0-5.332-2.388-5.332-5.332s2.388-5.332 5.332-5.332c2.944 0 5.332 2.388 5.332 5.332s-2.388 5.332-5.332 5.332z"></path>
<path d="M26.524 7.458c0 1.060-0.859 1.919-1.919 1.919s-1.919-0.859-1.919-1.919c0-1.060 0.859-1.919 1.919-1.919s1.919 0.859 1.919 1.919z"></path>
</symbol>
<symbol id="icon-yaco" viewBox="0 0 57 32">
<path d="M20.267 3.733l3.738 3.538-6.938-0.004v17.167h18.133v-6.564l3.733 3.534v-17.671h-18.667zM35.036 17.455l-10.597-10.032h10.597v10.032zM31.746 21.923h-11.81v-11.545h0.835v10.763h10.975v0.781zM22.725 26.72l-0.436 0.899-0.436-0.899h-0.366l0.637 1.198v0.698h0.331v-0.698l0.635-1.198h-0.364zM23.274 28.616l0.154-0.442h0.734l0.155 0.442h0.344l-0.717-1.896h-0.296l-0.716 1.896h0.342zM23.794 27.123l0.275 0.786h-0.549l0.275-0.787zM25.531 27.863c-0.045 0.067-0.071 0.149-0.071 0.238 0 0.001 0 0.002 0 0.003v-0c0 0.16 0.056 0.29 0.168 0.389s0.263 0.149 0.45 0.149c0.188 0 0.349-0.051 0.485-0.153l0.107 0.126h0.367l-0.278-0.33c0.109-0.149 0.164-0.341 0.164-0.574h-0.275c0 0.128-0.027 0.244-0.079 0.348l-0.366-0.432 0.129-0.094c0.078-0.053 0.144-0.119 0.195-0.195l0.002-0.003c0.038-0.061 0.060-0.136 0.060-0.216 0-0.001 0-0.002 0-0.003v0c0-0.002 0-0.005 0-0.007 0-0.117-0.051-0.221-0.132-0.293l-0-0c-0.084-0.076-0.197-0.123-0.32-0.123-0.007 0-0.013 0-0.020 0l0.001-0c-0.153 0-0.274 0.044-0.364 0.13s-0.135 0.203-0.135 0.352c0 0.061 0.014 0.123 0.043 0.189 0.030 0.065 0.082 0.144 0.155 0.237-0.14 0.101-0.235 0.188-0.282 0.261zM26.387 28.283c-0.081 0.066-0.185 0.106-0.299 0.107h-0c-0.005 0-0.010 0-0.015 0-0.082 0-0.156-0.031-0.212-0.083l0 0c-0.052-0.052-0.085-0.123-0.085-0.203 0-0.004 0-0.007 0-0.011l-0 0.001c0-0.101 0.052-0.192 0.156-0.271l0.041-0.029 0.414 0.489zM26.047 27.443c-0.090-0.11-0.134-0.202-0.134-0.275 0-0.063 0.019-0.116 0.055-0.157 0.034-0.039 0.084-0.063 0.139-0.063 0.003 0 0.005 0 0.008 0h-0c0.002-0 0.004-0 0.007-0 0.052 0 0.1 0.020 0.135 0.054l-0-0c0.037 0.035 0.056 0.077 0.056 0.126 0 0.002 0 0.005 0 0.007 0 0.071-0.031 0.134-0.080 0.177l-0 0-0.041 0.032-0.145 0.099zM29.133 28.473c0.13-0.114 0.205-0.272 0.224-0.474h-0.328c-0.018 0.135-0.059 0.232-0.124 0.29s-0.163 0.087-0.292 0.087c-0.141 0-0.249-0.054-0.323-0.162s-0.11-0.264-0.11-0.469v-0.167c0.002-0.203 0.041-0.355 0.117-0.46 0.077-0.105 0.188-0.157 0.331-0.157 0.123 0 0.217 0.030 0.28 0.091s0.104 0.158 0.12 0.294h0.328c-0.021-0.207-0.095-0.368-0.222-0.482s-0.296-0.171-0.506-0.171c-0.155 0-0.292 0.037-0.411 0.111-0.119 0.076-0.213 0.183-0.27 0.31l-0.002 0.005c-0.060 0.133-0.096 0.288-0.096 0.451 0 0.008 0 0.016 0 0.023l-0-0.001v0.177c0.003 0.174 0.035 0.327 0.098 0.46s0.151 0.234 0.266 0.306c0.116 0.071 0.249 0.107 0.4 0.107 0.216 0 0.389-0.056 0.519-0.169zM31.069 28.207c0.064-0.141 0.097-0.304 0.097-0.49v-0.105c0-0.006 0-0.013 0-0.020 0-0.169-0.036-0.329-0.102-0.473l0.003 0.007c-0.060-0.134-0.156-0.243-0.274-0.318l-0.003-0.002c-0.119-0.075-0.256-0.112-0.411-0.112s-0.291 0.037-0.411 0.113c-0.119 0.075-0.211 0.182-0.277 0.324-0.062 0.137-0.098 0.297-0.098 0.466 0 0.008 0 0.016 0 0.025l-0-0.001v0.107c0.001 0.181 0.034 0.341 0.099 0.48 0.066 0.139 0.159 0.246 0.279 0.322 0.121 0.075 0.258 0.112 0.411 0.112 0.156 0 0.293-0.037 0.412-0.112 0.119-0.076 0.212-0.183 0.276-0.323zM30.716 27.135c0.080 0.112 0.119 0.274 0.119 0.484v0.099c0 0.213-0.039 0.376-0.118 0.487-0.078 0.111-0.19 0.167-0.336 0.167-0.004 0-0.009 0-0.014 0-0.134 0-0.253-0.067-0.324-0.17l-0.001-0.001c-0.081-0.114-0.121-0.275-0.121-0.483v-0.109c0.002-0.204 0.043-0.362 0.122-0.473 0.071-0.102 0.188-0.168 0.321-0.168 0.005 0 0.010 0 0.014 0l-0.001-0c0.146 0 0.259 0.056 0.338 0.168z"></path>
</symbol>
<symbol id="icon-brand" viewBox="0 0 57 32">
<path d="M14.27 23.859c0.13 0.147 0.199 0.332 0.196 0.521 0.001 0.012 0.001 0.026 0.001 0.039 0 0.117-0.026 0.227-0.073 0.326l0.002-0.005c-0.056 0.119-0.135 0.218-0.232 0.296l-0.002 0.001c-0.221 0.152-0.494 0.243-0.789 0.243-0.032 0-0.064-0.001-0.096-0.003l0.004 0h-1.549v-3.301h1.517c0.027-0.002 0.058-0.003 0.090-0.003 0.279 0 0.539 0.083 0.756 0.225l-0.005-0.003c0.098 0.076 0.176 0.171 0.227 0.277 0.051 0.108 0.074 0.224 0.068 0.341 0.009 0.181-0.053 0.361-0.176 0.505-0.118 0.131-0.281 0.222-0.462 0.258 0.205 0.034 0.391 0.134 0.523 0.283zM12.454 23.361h0.649c0.147 0.010 0.293-0.029 0.412-0.11 0.047-0.039 0.085-0.088 0.109-0.144l0.001-0.003c0.019-0.043 0.030-0.092 0.030-0.145 0-0.011-0.001-0.022-0.001-0.033l0 0.001c0.001-0.008 0.001-0.018 0.001-0.028 0-0.053-0.011-0.104-0.031-0.15l0.001 0.002c-0.025-0.058-0.062-0.108-0.108-0.147l-0.001-0c-0.105-0.071-0.234-0.113-0.373-0.113-0.018 0-0.036 0.001-0.054 0.002l0.002-0h-0.638v0.867zM13.578 24.627c0.051-0.040 0.091-0.091 0.118-0.149l0.001-0.003c0.022-0.046 0.034-0.101 0.034-0.158 0-0.009-0-0.018-0.001-0.027l0 0.001c0-0.007 0.001-0.016 0.001-0.024 0-0.059-0.013-0.115-0.037-0.165l0.001 0.002c-0.029-0.061-0.070-0.112-0.121-0.151l-0.001-0.001c-0.112-0.076-0.249-0.121-0.397-0.121-0.015 0-0.030 0-0.045 0.001l0.002-0h-0.68v0.908h0.689c0.155 0.008 0.308-0.032 0.435-0.115zM17.371 25.278l-0.843-1.291h-0.317v1.291h-0.726v-3.302h1.374c0.029-0.002 0.064-0.003 0.098-0.003 0.323 0 0.622 0.107 0.862 0.287l-0.004-0.003c0.192 0.179 0.308 0.415 0.327 0.666 0.002 0.021 0.002 0.045 0.002 0.069 0 0.241-0.086 0.461-0.228 0.633l0.001-0.002c-0.171 0.175-0.396 0.296-0.649 0.335l-0.006 0.001 0.899 1.319h-0.789zM16.21 23.538h0.594c0.412 0 0.619-0.166 0.619-0.5 0-0.008 0.001-0.017 0.001-0.027 0-0.063-0.013-0.122-0.035-0.176l0.001 0.003c-0.028-0.067-0.068-0.124-0.118-0.171l-0-0c-0.113-0.085-0.255-0.136-0.41-0.136-0.020 0-0.040 0.001-0.060 0.003l0.003-0h-0.601l0.007 1.005zM21.339 24.613h-1.446l-0.255 0.665h-0.761l1.328-3.265h0.823l1.323 3.265h-0.761l-0.25-0.665zM21.145 24.114l-0.529-1.394-0.529 1.394h1.057zM26.305 25.278h-0.72l-1.616-2.245v2.245h-0.719v-3.302h0.719l1.616 2.259v-2.259h0.72v3.302zM30.417 24.488c-0.149 0.249-0.375 0.452-0.652 0.582-0.28 0.132-0.608 0.209-0.955 0.209-0.021 0-0.041-0-0.062-0.001l0.003 0h-1.282v-3.302h1.283c0.018-0 0.039-0.001 0.060-0.001 0.345 0 0.673 0.075 0.968 0.209l-0.015-0.006c0.273 0.126 0.496 0.324 0.648 0.57l0.004 0.006c0.149 0.269 0.226 0.565 0.226 0.867s-0.077 0.597-0.226 0.866zM29.593 24.409c0.196-0.205 0.317-0.482 0.318-0.788v-0c0-0.289-0.113-0.569-0.318-0.788-0.223-0.177-0.509-0.284-0.82-0.284-0.029 0-0.058 0.001-0.086 0.003l0.004-0h-0.5v2.138h0.5c0.025 0.002 0.054 0.003 0.083 0.003 0.311 0 0.596-0.107 0.822-0.285l-0.003 0.002zM21.79 3.609s9.3 3.215 9.103 7.867v7.869s-9.294-3.216-9.1-7.869l-0.003-7.867zM39.179 17.503c1.757-1.107 3.788-1.792 5.909-1.994v-2.464c-2.444 0.863-4.517 2.427-5.909 4.458z"></path>
<path d="M38.124 18.245c1.437-2.651 3.93-4.696 6.964-5.716v-7.098s-13.245 4.58-12.965 11.205v11.203s0.59-0.205 1.519-0.589c0-0.358 0-0.719 0.043-1.083 0.274-3.075 1.87-5.925 4.439-7.924z"></path>
<path d="M36.864 22.407c0.069-0.777 0.225-1.546 0.463-2.294-1.599 1.725-2.568 3.867-2.769 6.122-0.020 0.213-0.030 0.426-0.036 0.645 1.105-0.483 1.942-0.895 2.761-1.334l-0.214 0.105c-0.235-1.067-0.304-2.159-0.206-3.244zM37.39 22.447c-0.026 0.272-0.041 0.588-0.041 0.907 0 0.719 0.075 1.42 0.216 2.096l-0.012-0.066c3.619-1.983 7.685-5.046 7.528-8.748v-0.323c-2.586 0.265-5.004 1.3-6.885 2.946-0.415 0.932-0.702 2.014-0.804 3.148l-0.003 0.040z"></path>
</symbol>
<symbol id="icon-here" viewBox="0 0 57 32">
<path d="M26.727 3.165h-0.073c-0.112-0.007-0.224-0.010-0.336-0.012v0h-0.243c-0.212 0-0.428 0.005-0.642 0.016-0.016-0.001-0.032-0.001-0.049 0-1.944 0.11-3.848 0.596-5.609 1.431l-0.231 0.111v11.809l0.54-0.183c0.474-0.163 0.978-0.309 1.5-0.445 1.411-0.362 2.861-0.555 4.317-0.574v1.551c-0.193 0.001-0.38 0.007-0.568 0.016h-0.045c-1.121 0.061-2.233 0.232-3.322 0.51-1.378 0.345-2.708 0.863-3.957 1.542v-15.145c1.298-0.757 2.695-1.325 4.151-1.688 1.278-0.33 2.593-0.5 3.913-0.504h0.228c0.273 0.007 0.538 0.019 0.788 0.038 0.658 0.046 1.31 0.15 1.95 0.311v1.527c-0.621-0.145-1.253-0.24-1.889-0.285-0.013-0.001-0.026-0.002-0.039-0.003-0.132-0.011-0.263-0.022-0.386-0.022zM29.415 4.726c0.339 0.026 0.689 0.038 1.044 0.038 1.388-0.005 2.769-0.182 4.114-0.528 1.378-0.346 2.706-0.865 3.956-1.543v14.875c-1.298 0.756-2.696 1.325-4.153 1.688-1.279 0.329-2.593 0.498-3.913 0.503-1 0.008-1.997-0.11-2.968-0.35v-14.971c0.229 0.053 0.465 0.102 0.706 0.142 0.394 0.066 0.81 0.115 1.214 0.145zM36.985 4.841l-0.54 0.182c-0.497 0.167-0.997 0.316-1.5 0.449-1.465 0.377-2.971 0.57-4.483 0.575-0.352 0-0.676-0.010-0.989-0.030l-0.43-0.028v12.148l0.37 0.033c0.343 0.030 0.696 0.045 1.052 0.045 1.191-0.005 2.377-0.159 3.531-0.457 0.95-0.238 1.874-0.57 2.759-0.991l0.231-0.111v-11.813z"></path>
<path d="M19.060 24.113c-0.078-0.080-0.171-0.144-0.274-0.186s-0.214-0.061-0.326-0.057c-0.119-0.002-0.237 0.021-0.347 0.065-0.101 0.040-0.193 0.101-0.27 0.178s-0.135 0.17-0.174 0.271c-0.042 0.107-0.063 0.22-0.062 0.335v2.023c-0.005 0.143 0.022 0.284 0.080 0.415 0.048 0.104 0.117 0.196 0.202 0.271 0.081 0.068 0.176 0.117 0.278 0.144 0.098 0.028 0.2 0.042 0.302 0.042 0.113 0.001 0.224-0.023 0.326-0.070 0.101-0.044 0.193-0.108 0.27-0.187 0.075-0.079 0.135-0.171 0.177-0.271 0.043-0.102 0.065-0.212 0.065-0.323v-0.226h-0.529v0.18c0.002 0.062-0.009 0.123-0.031 0.18-0.017 0.043-0.043 0.082-0.077 0.114-0.033 0.026-0.070 0.046-0.111 0.058-0.036 0.012-0.073 0.018-0.111 0.019-0.047 0.006-0.095-0.002-0.139-0.021s-0.081-0.049-0.11-0.088c-0.050-0.081-0.074-0.176-0.070-0.271v-1.887c-0.003-0.105 0.019-0.208 0.065-0.302 0.027-0.043 0.066-0.077 0.112-0.098s0.097-0.030 0.147-0.024c0.046-0.002 0.091 0.008 0.132 0.028s0.077 0.049 0.104 0.086c0.059 0.078 0.090 0.173 0.088 0.271v0.175h0.524v-0.206c0.001-0.121-0.021-0.241-0.065-0.354-0.039-0.106-0.099-0.203-0.177-0.285z"></path>
<path d="M22.202 24.090c-0.169-0.142-0.381-0.221-0.602-0.222-0.108 0-0.215 0.020-0.316 0.057-0.103 0.037-0.198 0.093-0.279 0.165-0.088 0.079-0.158 0.175-0.205 0.283-0.053 0.124-0.079 0.257-0.077 0.392v1.941c-0.004 0.137 0.023 0.272 0.077 0.397 0.048 0.104 0.118 0.197 0.205 0.271 0.081 0.075 0.176 0.133 0.279 0.171 0.101 0.037 0.208 0.056 0.316 0.057s0.215-0.020 0.316-0.057c0.105-0.038 0.202-0.096 0.286-0.171 0.084-0.076 0.152-0.168 0.2-0.271 0.054-0.125 0.081-0.261 0.077-0.397v-1.941c0.003-0.135-0.024-0.268-0.077-0.392-0.047-0.107-0.115-0.203-0.2-0.283zM21.955 26.706c0.004 0.052-0.003 0.104-0.021 0.152s-0.047 0.092-0.084 0.128c-0.070 0.059-0.158 0.091-0.249 0.091s-0.179-0.032-0.249-0.091c-0.037-0.036-0.066-0.080-0.084-0.128s-0.025-0.101-0.021-0.152v-1.941c-0.004-0.052 0.003-0.104 0.021-0.152s0.047-0.092 0.084-0.128c0.070-0.059 0.158-0.091 0.249-0.091s0.179 0.032 0.249 0.091c0.037 0.036 0.066 0.080 0.084 0.128s0.025 0.101 0.021 0.152v1.941z"></path>
<path d="M26.329 27.573v-3.674h-0.509l-0.668 1.945h-0.009l-0.673-1.945h-0.503v3.674h0.525v-2.235h0.009l0.514 1.58h0.262l0.518-1.58h0.009v2.235h0.525z"></path>
<path d="M29.311 24.157c-0.081-0.091-0.183-0.16-0.297-0.201-0.123-0.040-0.251-0.059-0.38-0.057h-0.78v3.674h0.523v-1.435h0.27c0.163 0.007 0.326-0.027 0.472-0.1 0.119-0.066 0.218-0.163 0.287-0.281 0.061-0.098 0.101-0.206 0.12-0.32 0.021-0.138 0.030-0.278 0.028-0.418 0.005-0.176-0.012-0.353-0.051-0.525-0.035-0.127-0.101-0.243-0.193-0.338zM29.041 25.277c-0.002 0.067-0.019 0.132-0.049 0.191-0.030 0.056-0.077 0.102-0.135 0.129-0.078 0.035-0.162 0.050-0.247 0.046h-0.239v-1.249h0.27c0.081-0.004 0.162 0.012 0.236 0.046 0.054 0.031 0.097 0.079 0.123 0.136 0.029 0.065 0.044 0.134 0.046 0.205 0 0.077 0 0.159 0 0.244s0.005 0.174 0 0.252h-0.005z"></path>
<path d="M31.791 23.899h-0.429l-0.809 3.674h0.523l0.154-0.789h0.714l0.154 0.789h0.524l-0.83-3.674zM31.308 26.283l0.258-1.332h0.009l0.256 1.332h-0.524z"></path>
<path d="M35.173 26.112h-0.009l-0.791-2.213h-0.503v3.674h0.523v-2.209h0.011l0.8 2.209h0.492v-3.674h-0.523v2.213z"></path>
<path d="M38.372 23.899l-0.421 1.461h-0.011l-0.421-1.461h-0.554l0.719 2.121v1.553h0.524v-1.553l0.719-2.121h-0.554z"></path>
<path d="M17.6 28.61h0.252v0.708h0.171v-0.708h0.251v-0.145h-0.675v0.145z"></path>
<path d="M19.721 28.465l-0.331 0.853h0.182l0.070-0.194h0.34l0.073 0.194h0.186l-0.339-0.853h-0.182zM19.694 28.981l0.116-0.316 0.116 0.316h-0.232z"></path>
<path d="M21.818 29.004h0.197v0.11c-0.058 0.046-0.129 0.071-0.202 0.072-0.034 0.002-0.069-0.004-0.1-0.019s-0.059-0.036-0.081-0.063c-0.045-0.065-0.068-0.143-0.063-0.222 0-0.19 0.082-0.285 0.246-0.285 0.043-0.004 0.086 0.007 0.121 0.032s0.061 0.062 0.072 0.104l0.169-0.033c-0.036-0.167-0.156-0.251-0.362-0.251-0.11-0.003-0.216 0.036-0.298 0.11-0.043 0.042-0.076 0.094-0.097 0.15s-0.030 0.117-0.025 0.178c-0.005 0.117 0.034 0.231 0.109 0.32 0.042 0.043 0.092 0.077 0.148 0.098s0.116 0.031 0.176 0.027c0.134 0.004 0.263-0.045 0.362-0.136v-0.336h-0.37v0.144z"></path>
<path d="M23.959 28.465h-0.173v0.853h0.598v-0.145h-0.425v-0.708z"></path>
<path d="M25.769 28.465h-0.173v0.853h0.173v-0.853z"></path>
<path d="M27.539 29.035l-0.349-0.57h-0.167v0.853h0.161v-0.557l0.343 0.557h0.171v-0.853h-0.158v0.57z"></path>
<path d="M29.14 28.943h0.425v-0.145h-0.425v-0.187h0.457v-0.145h-0.63v0.853h0.648v-0.145h-0.475v-0.231z"></path>
<path d="M33.020 28.802h-0.336v-0.336h-0.171v0.853h0.171v-0.373h0.336v0.373h0.171v-0.853h-0.171v0.336z"></path>
<path d="M34.629 28.943h0.426v-0.145h-0.426v-0.187h0.459v-0.145h-0.63v0.853h0.646v-0.145h-0.475v-0.231z"></path>
<path d="M36.812 28.943c0.148-0.023 0.224-0.102 0.224-0.237 0.004-0.036-0.001-0.073-0.016-0.106s-0.038-0.062-0.068-0.083c-0.077-0.039-0.163-0.056-0.25-0.050h-0.362v0.853h0.171v-0.357h0.034c0.037-0.002 0.073 0.004 0.107 0.019 0.025 0.015 0.046 0.037 0.061 0.062l0.186 0.271h0.205l-0.104-0.167c-0.046-0.082-0.111-0.153-0.189-0.205zM36.64 28.825h-0.127v-0.214h0.135c0.059-0.005 0.118 0.002 0.174 0.020 0.012 0.011 0.022 0.025 0.029 0.040s0.009 0.032 0.009 0.049c-0.001 0.017-0.005 0.033-0.013 0.048s-0.019 0.027-0.032 0.037c-0.056 0.017-0.115 0.024-0.174 0.020z"></path>
<path d="M38.458 28.943h0.425v-0.145h-0.425v-0.187h0.459v-0.145h-0.631v0.853h0.648v-0.145h-0.475v-0.231z"></path>
</symbol>
<symbol id="icon-tagline" viewBox="0 0 57 32">
<path d="M28.493 14.618c-0.236-0.315-0.349-0.686-0.323-1.061v-1.538c0-0.471 0.107-0.83 0.321-1.075s0.581-0.367 1.102-0.366c0.489 0 0.836 0.104 1.042 0.313 0.224 0.266 0.333 0.592 0.308 0.92v0.361h-0.875v-0.366c0.003-0.12-0.005-0.24-0.025-0.358-0.013-0.081-0.057-0.156-0.125-0.213-0.090-0.061-0.203-0.091-0.317-0.083-0.12-0.008-0.239 0.024-0.333 0.088-0.076 0.063-0.127 0.145-0.145 0.235-0.025 0.126-0.037 0.253-0.034 0.38v1.866c-0.014 0.18 0.025 0.36 0.112 0.524 0.044 0.055 0.104 0.099 0.175 0.127s0.149 0.038 0.226 0.029c0.112 0.008 0.223-0.022 0.31-0.084 0.071-0.061 0.117-0.141 0.13-0.227 0.020-0.124 0.030-0.249 0.027-0.374v-0.379h0.875v0.346c0.025 0.342-0.082 0.682-0.303 0.967-0.201 0.228-0.544 0.343-1.047 0.343s-0.884-0.122-1.1-0.375z"></path>
<path d="M32.137 14.633c-0.221-0.239-0.332-0.588-0.332-1.050v-1.617c0-0.457 0.11-0.802 0.332-1.037s0.591-0.351 1.109-0.35c0.515 0 0.882 0.117 1.103 0.35 0.221 0.235 0.333 0.58 0.333 1.037v1.617c0 0.457-0.112 0.807-0.337 1.048s-0.591 0.361-1.1 0.361c-0.509 0-0.886-0.122-1.109-0.36zM33.654 14.245c0.079-0.15 0.115-0.314 0.105-0.479v-1.98c0.010-0.161-0.025-0.322-0.103-0.469-0.044-0.057-0.106-0.101-0.179-0.129s-0.152-0.037-0.231-0.027c-0.079-0.009-0.159 0-0.231 0.028s-0.135 0.072-0.18 0.129c-0.080 0.146-0.116 0.308-0.105 0.469v1.99c-0.011 0.165 0.025 0.329 0.105 0.479 0.051 0.050 0.114 0.091 0.185 0.119s0.147 0.042 0.225 0.042c0.078 0 0.154-0.014 0.225-0.042s0.134-0.068 0.185-0.119v-0.009z"></path>
<path d="M35.735 10.626h0.942l0.708 2.984 0.725-2.984h0.917l0.092 4.308h-0.678l-0.072-2.994-0.699 2.994h-0.544l-0.725-3.005-0.067 3.005h-0.685l0.085-4.308z"></path>
<path d="M40.176 10.626h1.468c0.846 0 1.268 0.408 1.268 1.223 0 0.781-0.445 1.171-1.335 1.17h-0.5v1.915h-0.906l0.005-4.308zM41.43 12.467c0.090 0.010 0.18 0.003 0.266-0.021s0.165-0.063 0.232-0.115c0.104-0.146 0.15-0.316 0.13-0.486 0.005-0.131-0.010-0.263-0.044-0.391-0.013-0.043-0.036-0.083-0.067-0.118s-0.070-0.065-0.114-0.087c-0.126-0.052-0.265-0.076-0.404-0.069h-0.352v1.287h0.352z"></path>
<path d="M44.218 10.626h0.973l0.998 4.308h-0.844l-0.197-0.993h-0.868l-0.203 0.993h-0.857l0.998-4.308zM45.050 13.441l-0.339-1.808-0.339 1.808h0.678z"></path>
<path d="M46.996 10.626h0.634l1.214 2.457v-2.457h0.752v4.308h-0.603l-1.221-2.565v2.565h-0.777l0.002-4.308z"></path>
<path d="M51.357 13.291l-1.009-2.659h0.85l0.616 1.708 0.578-1.708h0.832l-0.997 2.659v1.642h-0.87v-1.642z"></path>
<path d="M29.892 16.817v0.225h-0.739v1.75h-0.31v-1.75h-0.743v-0.225h1.792z"></path>
<path d="M32.209 18.793h-0.239c-0.024 0.001-0.048-0.005-0.067-0.019-0.018-0.011-0.032-0.027-0.040-0.045l-0.214-0.469h-1.026l-0.214 0.469c-0.006 0.020-0.017 0.038-0.033 0.053-0.019 0.013-0.043 0.020-0.067 0.019h-0.239l0.906-1.976h0.315l0.917 1.968zM30.709 18.059h0.855l-0.362-0.804c-0.027-0.061-0.049-0.123-0.067-0.186-0.013 0.038-0.024 0.073-0.034 0.105l-0.033 0.083-0.359 0.802z"></path>
<path d="M33.771 18.599c0.057 0.003 0.114 0.003 0.17 0 0.049-0.004 0.097-0.012 0.145-0.023 0.044-0.009 0.088-0.021 0.13-0.036 0.040-0.014 0.080-0.031 0.121-0.048v-0.444h-0.362c-0.009 0-0.018-0.001-0.026-0.003s-0.016-0.007-0.023-0.012c-0.006-0.004-0.011-0.010-0.014-0.016s-0.005-0.013-0.004-0.020v-0.152h0.703v0.757c-0.057 0.035-0.118 0.067-0.181 0.094-0.065 0.028-0.132 0.050-0.201 0.067-0.074 0.019-0.15 0.032-0.227 0.041-0.088 0.008-0.176 0.013-0.264 0.012-0.156 0.001-0.311-0.024-0.457-0.073-0.136-0.047-0.259-0.117-0.362-0.206-0.101-0.090-0.18-0.196-0.234-0.313-0.057-0.131-0.085-0.27-0.083-0.41-0.002-0.141 0.026-0.281 0.082-0.413 0.052-0.117 0.132-0.224 0.234-0.313 0.103-0.089 0.227-0.159 0.362-0.205 0.155-0.050 0.32-0.075 0.486-0.074 0.084-0 0.169 0.006 0.252 0.017 0.074 0.010 0.146 0.027 0.216 0.050 0.063 0.021 0.124 0.047 0.181 0.078 0.056 0.031 0.108 0.065 0.158 0.103l-0.087 0.122c-0.007 0.011-0.017 0.021-0.029 0.027s-0.027 0.010-0.041 0.010c-0.020-0.001-0.040-0.006-0.056-0.016-0.027-0.013-0.056-0.028-0.089-0.047-0.038-0.021-0.079-0.039-0.121-0.053-0.054-0.019-0.11-0.033-0.167-0.044-0.076-0.012-0.153-0.018-0.23-0.017-0.12-0.001-0.238 0.017-0.35 0.055-0.101 0.035-0.192 0.088-0.266 0.156-0.075 0.071-0.132 0.155-0.169 0.246-0.081 0.214-0.081 0.445 0 0.659 0.040 0.093 0.101 0.178 0.181 0.249 0.074 0.068 0.164 0.121 0.265 0.156 0.115 0.034 0.237 0.047 0.359 0.039z"></path>
<path d="M36.659 18.567h0.989v0.225h-1.292v-1.976h0.31l-0.007 1.75z"></path>
<path d="M38.678 18.792h-0.31v-1.976h0.31v1.976z"></path>
<path d="M39.83 16.826c0.018 0.009 0.034 0.021 0.047 0.036l1.324 1.489c-0.002-0.023-0.002-0.047 0-0.070 0-0.022 0-0.044 0-0.064v-1.408h0.27v1.984h-0.156c-0.023 0.002-0.046-0.002-0.067-0.011-0.019-0.010-0.035-0.023-0.049-0.038l-1.323-1.488c0 0.023 0 0.045 0 0.067s0 0.042 0 0.061v1.408h-0.259v-1.976h0.161c0.017 0 0.035 0.003 0.051 0.009z"></path>
<path d="M43.753 16.817v0.217h-1.098v0.652h0.89v0.21h-0.89v0.674h1.098v0.217h-1.417v-1.971h1.417z"></path>
<path d="M11.286 4.616l13.757 3.372v11.818l-13.757-3.371v-11.819zM10.404 3.609v13.401l15.52 3.806v-13.399l-15.52-3.807z"></path>
<path d="M18.722 27.036l-15.522-3.809v-13.399l15.522 3.807v13.401z"></path>
<path d="M10.661 4.465l13.578 3.33-5.774 4.987-13.58-3.332 5.776-4.985zM10.404 3.609l-7.204 6.219 15.522 3.807 7.202-6.219-15.52-3.807z"></path>
<path d="M19.595 26.282l6.329-5.465-6.329-1.553v7.018z"></path>
</symbol>
<symbol id="icon-company" viewBox="0 0 57 32">
<path d="M19.417 26.187c0.008 0 0.017 0.002 0.025 0.005s0.015 0.007 0.020 0.013l0.116 0.111c-0.090 0.090-0.202 0.162-0.327 0.211-0.147 0.053-0.305 0.079-0.464 0.076-0.149 0.003-0.298-0.021-0.436-0.071-0.125-0.045-0.237-0.113-0.329-0.2-0.094-0.089-0.166-0.194-0.212-0.308-0.051-0.127-0.076-0.261-0.074-0.396-0.002-0.135 0.025-0.27 0.080-0.397 0.051-0.115 0.127-0.22 0.225-0.308 0.099-0.087 0.218-0.155 0.349-0.201 0.143-0.048 0.296-0.072 0.449-0.071 0.143-0.003 0.285 0.019 0.417 0.064 0.115 0.043 0.221 0.104 0.313 0.178l-0.097 0.119c-0.007 0.008-0.015 0.016-0.025 0.021-0.011 0.007-0.025 0.010-0.039 0.009-0.015-0.001-0.030-0.005-0.042-0.013l-0.052-0.032-0.073-0.040c-0.031-0.015-0.064-0.028-0.097-0.039-0.043-0.013-0.087-0.024-0.132-0.032-0.057-0.009-0.115-0.013-0.173-0.013-0.111-0.001-0.22 0.017-0.323 0.053-0.096 0.034-0.182 0.084-0.253 0.149-0.072 0.069-0.128 0.15-0.164 0.238-0.041 0.101-0.061 0.207-0.060 0.313-0.002 0.108 0.018 0.216 0.060 0.318 0.036 0.087 0.090 0.167 0.161 0.236 0.067 0.064 0.149 0.114 0.241 0.147 0.095 0.034 0.197 0.051 0.3 0.050 0.059 0.001 0.119-0.003 0.177-0.010 0.096-0.010 0.188-0.039 0.269-0.085 0.041-0.023 0.079-0.049 0.115-0.078 0.015-0.012 0.035-0.020 0.055-0.020z"></path>
<path d="M22.776 25.629c0.002 0.134-0.025 0.267-0.078 0.393-0.047 0.114-0.122 0.218-0.219 0.305s-0.214 0.155-0.344 0.2c-0.285 0.094-0.599 0.094-0.884 0-0.129-0.046-0.245-0.114-0.342-0.201-0.097-0.089-0.172-0.194-0.221-0.308-0.105-0.255-0.105-0.533 0-0.787 0.050-0.115 0.125-0.22 0.221-0.31 0.097-0.084 0.214-0.15 0.342-0.193 0.284-0.096 0.6-0.096 0.884 0 0.129 0.046 0.246 0.114 0.343 0.201 0.096 0.088 0.17 0.191 0.22 0.305 0.054 0.127 0.080 0.261 0.078 0.395zM22.47 25.629c0.002-0.107-0.016-0.214-0.055-0.316-0.033-0.087-0.086-0.168-0.156-0.236-0.068-0.065-0.152-0.116-0.246-0.149-0.207-0.069-0.436-0.069-0.643 0-0.094 0.033-0.178 0.084-0.246 0.149-0.071 0.068-0.125 0.149-0.157 0.236-0.074 0.206-0.074 0.426 0 0.632 0.033 0.087 0.086 0.168 0.157 0.236 0.068 0.065 0.152 0.115 0.246 0.148 0.207 0.067 0.435 0.067 0.643 0 0.093-0.033 0.177-0.083 0.246-0.148 0.070-0.069 0.123-0.149 0.156-0.236 0.039-0.102 0.058-0.209 0.055-0.316z"></path>
<path d="M25.067 25.96l0.030 0.071c0.012-0.025 0.022-0.048 0.034-0.071 0.011-0.024 0.024-0.047 0.038-0.070l0.743-1.174c0.015-0.020 0.028-0.033 0.042-0.037 0.020-0.005 0.040-0.007 0.061-0.006h0.22v1.909h-0.26v-1.404c0-0.018 0-0.038 0-0.059-0.001-0.022-0.001-0.044 0-0.066l-0.747 1.19c-0.009 0.018-0.025 0.033-0.044 0.043s-0.041 0.016-0.064 0.016h-0.042c-0.023 0-0.045-0.005-0.064-0.016s-0.034-0.026-0.044-0.044l-0.769-1.198c0 0.023 0 0.045 0 0.068s0 0.043 0 0.061v1.404h-0.252v-1.905h0.22c0.021-0.001 0.041 0.001 0.061 0.006 0.018 0.008 0.032 0.021 0.041 0.037l0.759 1.175c0.015 0.022 0.028 0.045 0.038 0.068z"></path>
<path d="M27.864 25.865v0.715h-0.291v-1.906h0.649c0.122-0.002 0.244 0.012 0.362 0.042 0.094 0.023 0.181 0.064 0.256 0.119 0.065 0.052 0.114 0.116 0.145 0.187 0.034 0.078 0.051 0.161 0.049 0.244 0.001 0.084-0.017 0.167-0.054 0.244-0.035 0.073-0.089 0.138-0.157 0.191-0.075 0.057-0.162 0.1-0.257 0.126-0.113 0.031-0.232 0.046-0.35 0.044l-0.352-0.005zM27.864 25.66h0.352c0.076 0.001 0.153-0.009 0.225-0.029 0.060-0.018 0.115-0.046 0.163-0.082 0.044-0.035 0.078-0.078 0.099-0.126 0.024-0.051 0.036-0.105 0.035-0.16 0.003-0.053-0.007-0.106-0.029-0.155s-0.057-0.094-0.102-0.13c-0.111-0.075-0.251-0.112-0.391-0.102h-0.352v0.786z"></path>
<path d="M31.772 26.583h-0.23c-0.023 0.001-0.046-0.005-0.064-0.018-0.016-0.012-0.029-0.027-0.038-0.044l-0.198-0.461h-0.993l-0.205 0.461c-0.008 0.017-0.020 0.032-0.036 0.043-0.018 0.013-0.042 0.020-0.065 0.019h-0.23l0.872-1.909h0.302l0.884 1.909zM30.333 25.874h0.82l-0.346-0.777c-0.026-0.058-0.048-0.118-0.065-0.179l-0.033 0.1c-0.010 0.030-0.022 0.058-0.032 0.081l-0.343 0.776z"></path>
<path d="M33.029 24.682c0.017 0.008 0.032 0.020 0.044 0.034l1.272 1.439c0-0.023 0-0.046 0-0.067s0-0.043 0-0.063v-1.352h0.26v1.909h-0.145c-0.021 0.001-0.041-0.003-0.060-0.011-0.018-0.009-0.034-0.021-0.047-0.035l-1.271-1.438c0.001 0.022 0.001 0.044 0 0.066 0 0.021 0 0.040 0 0.058v1.361h-0.26v-1.909h0.154c0.018-0 0.036 0.003 0.052 0.009z"></path>
<path d="M36.748 25.823v0.758h-0.291v-0.758l-0.804-1.15h0.26c0.022-0.001 0.045 0.005 0.063 0.016 0.016 0.012 0.029 0.027 0.039 0.043l0.503 0.742c0.020 0.032 0.038 0.061 0.052 0.088s0.026 0.054 0.036 0.081l0.038-0.082c0.014-0.030 0.031-0.059 0.049-0.087l0.496-0.747c0.010-0.015 0.023-0.028 0.038-0.040 0.017-0.013 0.040-0.020 0.063-0.019h0.263l-0.806 1.155z"></path>
<path d="M24.923 21.47c0.127 0.014 0.254 0.025 0.384 0.035 1.962-0.763 3.622-2.011 4.772-3.588s1.739-3.415 1.694-5.282l-2.162-1.879c0.44 1.988 0.234 4.043-0.594 5.935s-2.246 3.547-4.094 4.779z"></path>
<path d="M24.151 21.383l0.058 0.010c1.975-1.228 3.482-2.942 4.323-4.921s0.981-4.133 0.4-6.181l-3.080-2.676c1.246 2.2 1.747 4.661 1.446 7.098s-1.393 4.75-3.147 6.67z"></path>
<path d="M34.596 14.841c-0.523 2.052-1.794 3.902-3.624 5.276-0.534 0.404-1.111 0.763-1.722 1.074 1.49-0.38 2.859-1.053 4.003-1.966s2.030-2.042 2.592-3.3l-1.249-1.084z"></path>
<path d="M34.106 14.539l-1.778-1.545c-0.034 1.762-0.61 3.483-1.669 4.986s-2.562 2.731-4.352 3.559h0.009c0.399-0 0.798-0.021 1.194-0.062 1.673-0.593 3.151-1.537 4.303-2.748s1.94-2.65 2.295-4.189z"></path>
<path d="M24.409 6.486l-2.122-1.846c-1.897 0.637-3.528 1.756-4.68 3.212s-1.772 3.179-1.778 4.946v0c0.007 1.952 0.763 3.846 2.149 5.383s3.321 2.628 5.501 3.101c1.946-2.060 3.085-4.605 3.252-7.266s-0.647-5.299-2.323-7.53z"></path>
<path d="M39.008 14.255c-0.008-2.316-1.070-4.535-2.955-6.173s-4.439-2.561-7.105-2.567c-1.232-0.001-2.453 0.196-3.602 0.582l12.99 11.286c0.445-0.998 0.673-2.058 0.672-3.128z"></path>
</symbol>
<symbol id="icon-linkedin" viewBox="0 0 32 32">
<path d="M31.992 32v-0.001h0.008v-11.736c0-5.741-1.236-10.164-7.948-10.164-3.227 0-5.392 1.771-6.276 3.449h-0.093v-2.913h-6.364v21.364h6.627v-10.579c0-2.785 0.528-5.479 3.977-5.479 3.399 0 3.449 3.179 3.449 5.657v10.401h6.62z"></path>
<path d="M0.528 10.636h6.635v21.364h-6.635v-21.364z"></path>
<path d="M3.843 0c-2.121 0-3.843 1.721-3.843 3.843s1.721 3.879 3.843 3.879c2.121 0 3.843-1.757 3.843-3.879-0.001-2.121-1.723-3.843-3.843-3.843v0z"></path>
</symbol>
<symbol id="icon-facebook" viewBox="0 0 32 32">
<path d="M21.329 5.313h2.921v-5.088c-0.504-0.069-2.237-0.225-4.256-0.225-4.212 0-7.097 2.649-7.097 7.519v4.481h-4.648v5.688h4.648v14.312h5.699v-14.311h4.46l0.708-5.688h-5.169v-3.919c0.001-1.644 0.444-2.769 2.735-2.769z"></path>
</symbol>
<symbol id="icon-twitter" viewBox="0 0 32 32">
<path d="M32 6.078c-1.19 0.522-2.458 0.868-3.78 1.036 1.36-0.812 2.398-2.088 2.886-3.626-1.268 0.756-2.668 1.29-4.16 1.588-1.204-1.282-2.92-2.076-4.792-2.076-3.632 0-6.556 2.948-6.556 6.562 0 0.52 0.044 1.020 0.152 1.496-5.454-0.266-10.28-2.88-13.522-6.862-0.566 0.982-0.898 2.106-0.898 3.316 0 2.272 1.17 4.286 2.914 5.452-1.054-0.020-2.088-0.326-2.964-0.808 0 0.020 0 0.046 0 0.072 0 3.188 2.274 5.836 5.256 6.446-0.534 0.146-1.116 0.216-1.72 0.216-0.42 0-0.844-0.024-1.242-0.112 0.85 2.598 3.262 4.508 6.13 4.57-2.232 1.746-5.066 2.798-8.134 2.798-0.538 0-1.054-0.024-1.57-0.090 2.906 1.874 6.35 2.944 10.064 2.944 12.072 0 18.672-10 18.672-18.668 0-0.29-0.010-0.57-0.024-0.848 1.302-0.924 2.396-2.078 3.288-3.406z"></path>
</symbol>
<symbol id="icon-astronaut" viewBox="0 0 32 32">
<path d="M31.974 4.524c-0.063-0.193-0.229-0.333-0.43-0.363l-1.91-0.278-0.855-1.731c-0.179-0.365-0.777-0.365-0.956 0l-0.855 1.731-1.91 0.278c-0.201 0.029-0.367 0.17-0.431 0.363-0.062 0.193-0.011 0.405 0.135 0.547l1.383 1.348-0.326 1.903c-0.034 0.2 0.048 0.402 0.212 0.522 0.166 0.121 0.382 0.135 0.562 0.040l1.709-0.899 1.709 0.899c0.078 0.041 0.164 0.061 0.249 0.061 0.11 0 0.221-0.034 0.314-0.102 0.164-0.119 0.246-0.322 0.212-0.522l-0.326-1.903 1.383-1.348c0.145-0.142 0.197-0.354 0.135-0.547zM29.511 5.851c-0.125 0.122-0.183 0.299-0.153 0.472l0.191 1.114-1-0.526c-0.078-0.041-0.163-0.061-0.249-0.061s-0.17 0.020-0.249 0.061l-1.001 0.526 0.191-1.114c0.030-0.173-0.028-0.349-0.153-0.472l-0.81-0.789 1.119-0.163c0.174-0.025 0.324-0.134 0.402-0.292l0.5-1.013 0.5 1.013c0.078 0.157 0.228 0.267 0.402 0.292l1.119 0.163-0.809 0.789z"></path>
<path d="M26.134 20.522h-1.067v1.067h1.067v-1.067z"></path>
<path d="M26.134 22.656h-1.067v1.067h1.067v-1.067z"></path>
<path d="M27.2 21.589h-1.067v1.067h1.067v-1.067z"></path>
<path d="M25.067 21.589h-1.067v1.067h1.067v-1.067z"></path>
<path d="M22.4 26.389h-1.067v1.067h1.067v-1.067z"></path>
<path d="M22.4 28.522h-1.067v1.067h1.067v-1.067z"></path>
<path d="M23.467 27.456h-1.067v1.067h1.067v-1.067z"></path>
<path d="M21.333 27.456h-1.067v1.067h1.067v-1.067z"></path>
<path d="M16 24.256h-1.067v1.067h1.067v-1.067z"></path>
<path d="M16 26.389h-1.067v1.067h1.067v-1.067z"></path>
<path d="M17.067 25.322h-1.067v1.067h1.067v-1.067z"></path>
<path d="M14.933 25.322h-1.067v1.067h1.067v-1.067z"></path>
<path d="M5.867 6.122h-1.067v1.067h1.067v-1.067z"></path>
<path d="M5.867 8.255h-1.067v1.067h1.067v-1.067z"></path>
<path d="M6.933 7.189h-1.067v1.067h1.067v-1.067z"></path>
<path d="M4.8 7.189h-1.067v1.067h1.067v-1.067z"></path>
<path d="M24.715 14.159c-0.287-0.388-0.709-0.637-1.188-0.705-0.481-0.068-0.956 0.058-1.34 0.352l-1.252 0.96-1.898 1.417-1.358-0.541c2.421-1.086 4.114-3.508 4.114-6.32 0-3.823-3.123-6.933-6.961-6.933s-6.961 3.11-6.961 6.933c0 1.386 0.414 2.674 1.12 3.758l-2.764-0.024c-0.002 0-0.003 0-0.005 0-0.009 0-0.015 0.004-0.023 0.005-0.053 0.002-0.105 0.013-0.155 0.031-0.013 0.005-0.026 0.008-0.038 0.013-0.006 0.003-0.013 0.003-0.019 0.006l-3.233 1.596c-0.001 0-0.001 0-0.001 0.001l-1.893 0.911c-0.021 0.009-0.042 0.021-0.063 0.035-0.755 0.502-1.012 1.489-0.598 2.295 0.22 0.429 0.595 0.745 1.056 0.889 0.178 0.055 0.359 0.083 0.539 0.083 0.29 0 0.577-0.071 0.839-0.211l1.388-0.738 2.264-1.169 1.357-0.008-5.442 5.416c-0.001 0.001-0.001 0.001-0.002 0.001l-1.339 1.333c-0.316 0.315-0.49 0.732-0.49 1.178s0.174 0.863 0.49 1.179c0.325 0.323 0.752 0.485 1.179 0.485s0.854-0.162 1.18-0.485l1.314-1.309 1.741-1.3 0.901 0.897-1.762 1.754c-0 0.001-0.001 0.001-0.002 0.001l-1.339 1.333c-0.316 0.315-0.49 0.732-0.49 1.178s0.174 0.863 0.49 1.179c0.325 0.323 0.753 0.485 1.18 0.485s0.855-0.162 1.18-0.485l3.482-3.467c0.001-0.001 0.001-0.001 0.001-0.002l1.010-1-0.004-0.004c0.006-0.006 0.015-0.009 0.022-0.015l5.166-5.658 3.471 0.494c0.025 0.004 0.050 0.005 0.075 0.005 0.065 0 0.127-0.015 0.187-0.038 0.018-0.006 0.033-0.015 0.050-0.023 0.019-0.010 0.039-0.015 0.058-0.027l3.213-2.133c0.012-0.008 0.018-0.021 0.029-0.029 0.013-0.010 0.029-0.014 0.041-0.026l1.271-1.191c0.662-0.62 0.753-1.635 0.212-2.362zM2.13 17.77c-0.173 0.093-0.37 0.111-0.558 0.052-0.187-0.058-0.338-0.186-0.427-0.358-0.161-0.314-0.068-0.695 0.214-0.902l1.314-0.632 0.449 1.312-0.992 0.528zM5.628 15.942l-1.548 0.8-0.439-1.283 2.027-1.001-0.040 1.484zM20.727 9.322c0 0.918-0.219 1.785-0.599 2.559l-4.181-1.899c-0.044-0.573-0.341-1.075-0.788-1.388l1.464-4.86c2.378 0.756 4.105 2.974 4.105 5.588zM8.938 9.322c0-3.235 2.644-5.867 5.894-5.867 0.253 0 0.5 0.021 0.745 0.052l-1.432 4.754c-0.019-0.001-0.037-0.006-0.057-0.006-1.033 0-1.873 0.837-1.873 1.867s0.84 1.867 1.873 1.867c0.694 0 1.294-0.383 1.618-0.945l3.862 1.755c-1.075 1.446-2.795 2.39-4.737 2.39-3.25 0-5.894-2.632-5.894-5.867zM14.894 10.122c0 0.441-0.362 0.8-0.806 0.8s-0.806-0.359-0.806-0.8c0-0.441 0.362-0.8 0.806-0.8s0.806 0.359 0.806 0.8zM2.465 25.146c-0.236 0.234-0.619 0.234-0.854 0.001-0.114-0.114-0.176-0.263-0.176-0.423s0.062-0.309 0.176-0.421l0.962-0.958 0.851 0.848-0.959 0.955zM5.679 28.88c-0.236 0.234-0.619 0.235-0.855 0.001-0.114-0.114-0.176-0.263-0.176-0.423s0.062-0.309 0.176-0.421l0.963-0.959 0.852 0.848-0.96 0.955zM9.16 25.411c-0.001 0-0.001 0-0.002 0.001l-1.765 1.76-0.852-0.848 1.763-1.755c0 0 0 0 0-0s0.001-0.001 0.002-0.001c0.040-0.040 0.065-0.088 0.090-0.135 0.007-0.014 0.020-0.026 0.026-0.040 0.017-0.041 0.019-0.085 0.026-0.129 0.003-0.025 0.014-0.047 0.014-0.073 0-0.036-0.013-0.070-0.020-0.106-0.006-0.032-0.006-0.065-0.019-0.095-0.020-0.050-0.055-0.094-0.091-0.138-0.010-0.012-0.014-0.027-0.025-0.038 0 0 0 0-0.001 0s-0.001-0.002-0.001-0.002l-1.607-1.6c-0.017-0.017-0.039-0.024-0.058-0.038-0.028-0.022-0.055-0.042-0.087-0.058-0.030-0.015-0.061-0.024-0.093-0.033-0.034-0.010-0.067-0.017-0.103-0.020-0.033-0.002-0.063 0.001-0.095 0.005-0.036 0.004-0.069 0.009-0.104 0.020-0.034 0.011-0.063 0.027-0.094 0.045-0.020 0.011-0.042 0.015-0.061 0.029l-1.773 1.324-0.901-0.897 2.399-2.386 4.361 4.289-0.928 0.919zM15.979 18.394c-0.015-0.002-0.030 0.004-0.045 0.003-0.039-0.002-0.076 0.001-0.115 0.007-0.030 0.005-0.059 0.011-0.088 0.021-0.034 0.012-0.065 0.028-0.097 0.047-0.030 0.018-0.057 0.037-0.083 0.061-0.013 0.011-0.028 0.017-0.040 0.029l-4.698 5.146-4.328-4.257 2.833-2.818c0.209-0.208 0.21-0.546 0.002-0.755-0.105-0.105-0.243-0.157-0.381-0.156v-0.001l-2.219 0.013 0.028-1.607 3.104 0.027c1.265 1.294 3.029 2.101 4.981 2.101 0.437 0 0.864-0.045 1.279-0.123 0.040 0.032 0.079 0.065 0.13 0.085l2.41 0.96 0.331 1.644-3.003-0.427zM20.020 18.572l-0.313-1.558 1.446-1.080 0.947 1.257-2.080 1.381zM23.774 15.741l-0.838 0.785-0.931-1.236 0.831-0.637c0.155-0.119 0.351-0.168 0.543-0.143 0.193 0.027 0.364 0.128 0.48 0.284 0.217 0.292 0.18 0.699-0.085 0.947z"></path>
<path d="M13.602 18.544l-2.143-2.133c-0.207-0.207-0.545-0.207-0.753 0l-2.142 2.133c-0.1 0.101-0.157 0.236-0.157 0.378s0.056 0.278 0.157 0.378l2.142 2.133c0.104 0.103 0.241 0.155 0.377 0.155s0.273-0.052 0.376-0.155l2.143-2.133c0.1-0.1 0.157-0.236 0.157-0.378s-0.057-0.278-0.157-0.378zM11.083 20.303l-1.387-1.381 1.387-1.381 1.387 1.381-1.387 1.381z"></path>
<path d="M17.164 5.071l-0.258 1.036c0.071 0.018 1.738 0.452 1.738 2.149h1.067c-0-2.017-1.666-2.965-2.547-3.185z"></path>
<path d="M19.711 9.322h-1.067v1.067h1.067v-1.067z"></path>
</symbol>
<symbol id="icon-diagram" viewBox="0 0 32 32">
<path d="M14.925 14.965h1.066v4.798h-1.066v-4.797z"></path>
<path d="M19.19 17.097h1.066v2.665h-1.066v-2.665z"></path>
<path d="M10.661 18.696h1.066v1.066h-1.066v-1.066z"></path>
<path d="M7.463 18.163h1.066v1.599h-1.066v-1.599z"></path>
<path d="M1.599 28.291h25.587c0.883 0 1.599-0.716 1.599-1.599v-2.132c0-0.883-0.716-1.599-1.599-1.599h-0.533v-13.293l3.028-2.868c0.703 0.346 1.553 0.136 2.013-0.499s0.396-1.508-0.152-2.068-1.42-0.644-2.065-0.198c-0.644 0.446-0.873 1.292-0.542 2.002l-2.281 2.163v-1.23c0-0.883-0.716-1.599-1.599-1.599h-21.322c-0.883 0-1.599 0.716-1.599 1.599v15.992h-0.533c-0.883 0-1.599 0.716-1.599 1.599v2.132c0 0.883 0.716 1.599 1.599 1.599zM30.384 4.837c0.294 0 0.533 0.239 0.533 0.533s-0.239 0.533-0.533 0.533c-0.294 0-0.533-0.239-0.533-0.533s0.239-0.533 0.533-0.533zM3.198 6.969c0-0.294 0.239-0.533 0.533-0.533h21.322c0.294 0 0.533 0.239 0.533 0.533v2.239l-1.066 1.013v-2.186c0-0.294-0.239-0.533-0.533-0.533h-19.19c-0.294 0-0.533 0.239-0.533 0.533v13.326c0 0.294 0.239 0.533 0.533 0.533h19.19c0.294 0 0.533-0.239 0.533-0.533v-9.674l1.066-1.010v12.284h-22.388v-15.992zM7.996 13.898c-0.721-0.002-1.354 0.478-1.546 1.174s0.105 1.433 0.725 1.801c0.62 0.368 1.41 0.276 1.928-0.226l1.853 0.93c0.215 0.108 0.476 0.057 0.636-0.123l3.939-4.431 3.872 2.901c0.208 0.156 0.498 0.139 0.686-0.039l3.365-3.188v8.131h-18.124v-12.26h18.124v2.66l-3.771 3.572-3.904-2.927c-0.222-0.166-0.534-0.135-0.718 0.072l-3.993 4.493-1.493-0.746c0.011-0.064 0.018-0.129 0.020-0.193 0-0.883-0.716-1.599-1.599-1.599zM8.529 15.498c0 0.294-0.239 0.533-0.533 0.533s-0.533-0.239-0.533-0.533c0-0.294 0.239-0.533 0.533-0.533s0.533 0.239 0.533 0.533zM11.727 24.026h5.331v0.533c0 0.294-0.239 0.533-0.533 0.533h-4.264c-0.294 0-0.533-0.239-0.533-0.533v-0.533zM1.066 24.56c0-0.294 0.239-0.533 0.533-0.533h9.062v0.533c0 0.883 0.716 1.599 1.599 1.599h4.264c0.883 0 1.599-0.716 1.599-1.599v-0.533h9.062c0.294 0 0.533 0.239 0.533 0.533v2.132c0 0.294-0.239 0.533-0.533 0.533h-25.587c-0.294 0-0.533-0.239-0.533-0.533v-2.132z"></path>
</symbol>
<symbol id="icon-clock" viewBox="0 0 32 32">
<path d="M31.297 15.301c-0.002-8.452-6.855-15.303-15.308-15.301s-15.303 6.855-15.301 15.308c0.001 6.658 4.307 12.551 10.649 14.576 0.061 0.019 0.124 0.029 0.187 0.029 0.121-0 0.239-0.032 0.342-0.094 0.135-0.080 0.236-0.207 0.283-0.356l3.865-12.25c1.057-0.005 1.909-0.866 1.903-1.923s-0.866-1.909-1.923-1.903c-0.284 0.001-0.565 0.067-0.82 0.191l-5.106-5.107c-0.253-0.245-0.657-0.238-0.902 0.016-0.239 0.247-0.239 0.639 0 0.886l5.103 5.109c-0.392 0.799-0.168 1.764 0.536 2.309l-3.683 11.673c-7.278-2.681-11.004-10.754-8.323-18.032s10.754-11.004 18.032-8.323 11.004 10.754 8.323 18.032c-1.31 3.556-4.001 6.431-7.462 7.973l-0.398-1.874c-0.073-0.344-0.411-0.565-0.756-0.492-0.109 0.023-0.209 0.074-0.292 0.148l-3.837 3.426c-0.263 0.234-0.287 0.637-0.052 0.9 0.076 0.085 0.174 0.149 0.283 0.184l4.899 1.563c0.335 0.108 0.694-0.077 0.802-0.412 0.034-0.106 0.040-0.219 0.017-0.328l-0.391-1.839c5.664-2.388 9.342-7.942 9.329-14.089zM15.992 14.664c0.352 0 0.638 0.286 0.638 0.638s-0.286 0.638-0.638 0.638c-0.352 0-0.638-0.285-0.638-0.638s0.285-0.638 0.638-0.638zM18.093 29.528l2.184-1.948 0.603 2.84-2.787-0.892z"></path>
<path d="M15.354 3.185v1.275c0 0.352 0.285 0.638 0.638 0.638s0.638-0.285 0.638-0.638v-1.275c0-0.352-0.286-0.638-0.638-0.638s-0.638 0.286-0.638 0.638z"></path>
<path d="M3.876 14.664c-0.352 0-0.638 0.286-0.638 0.638s0.285 0.638 0.638 0.638h1.275c0.352 0 0.638-0.285 0.638-0.638s-0.285-0.638-0.638-0.638h-1.275z"></path>
<path d="M28.108 15.939c0.352 0 0.638-0.285 0.638-0.638s-0.285-0.638-0.638-0.638h-1.275c-0.352 0-0.638 0.286-0.638 0.638s0.286 0.638 0.638 0.638h1.275z"></path>
</symbol>
<symbol id="icon-antenna" viewBox="0 0 32 32">
<path d="M30.773 22.098l-8.443-8.505 0.937-4.615c0.242 0.094 0.499 0.144 0.758 0.146h0.006c1.192 0.014 2.17-0.941 2.184-2.133s-0.941-2.17-2.133-2.184c-1.192-0.014-2.17 0.941-2.184 2.133-0.003 0.255 0.039 0.509 0.125 0.749l-4.96 0.605-8.091-8.133c-0.099-0.101-0.235-0.159-0.377-0.16-0.14 0.001-0.274 0.056-0.373 0.155l-1.513 1.504c-0.208 0.208-0.208 0.546 0 0.754l0.814 0.826c-3.153 5.798-2.129 12.978 2.519 17.663 0.043 0.041 0.092 0.074 0.146 0.098-0.034 0.18-0.051 0.364-0.052 0.547v6.187h-6.4c-1.472 0.002-2.665 1.195-2.667 2.667v1.067c0 0.295 0.239 0.533 0.533 0.533h24.533c0.295 0 0.533-0.239 0.533-0.533v-1.067c-0.002-1.472-1.195-2.665-2.667-2.667h-6.4v-2.742c1.003 0.21 2.024 0.317 3.049 0.32 2.458-0.003 4.877-0.615 7.040-1.783l0.818 0.823c0.099 0.101 0.235 0.159 0.377 0.16 0.14-0.001 0.274-0.056 0.373-0.155l1.513-1.504c0.208-0.208 0.208-0.546 0-0.754zM23.28 6.233c0.418-0.415 1.093-0.414 1.508 0.004s0.414 1.093-0.004 1.508c-0.2 0.199-0.47 0.31-0.752 0.31h-0.003c-0.589-0.003-1.064-0.483-1.061-1.072 0.002-0.282 0.115-0.552 0.314-0.751h-0.002zM22.024 9.738l-0.598 2.946-1.175-1.182 1.774-1.763zM21.419 8.836l-1.92 1.909-1.485-1.493 3.405-0.415zM24.004 28.8c0.884 0 1.6 0.716 1.6 1.6v0.533h-23.467v-0.533c0-0.884 0.716-1.6 1.6-1.6h20.267zM16.537 26.667v1.067h-5.333v-1.067h5.333zM11.204 25.6v-4.053c0-1.294 1.196-2.347 2.667-2.347s2.667 1.053 2.667 2.347v4.053h-5.333zM17.604 23.904v-2.357c0-1.882-1.675-3.413-3.733-3.413-1.331-0.020-2.576 0.657-3.281 1.786-4.058-4.274-4.971-10.645-2.279-15.887l18.602 18.708c-2.872 1.461-6.165 1.873-9.309 1.163zM28.893 23.22l-21.057-21.181 0.755-0.752 7.935 7.98c0.004 0 0.006 0.007 0.010 0.010l13.115 13.191-0.757 0.752z"></path>
<path d="M13.876 20.267h-0.005c-0.884-0.001-1.601 0.714-1.602 1.598s0.714 1.601 1.598 1.602h0.005c0.884 0.001 1.601-0.714 1.602-1.598s-0.714-1.601-1.598-1.602zM14.249 22.245c-0.1 0.1-0.236 0.156-0.378 0.155-0.295-0.002-0.532-0.241-0.531-0.536 0.001-0.141 0.057-0.276 0.157-0.375s0.233-0.154 0.373-0.155c0.295 0.002 0.532 0.241 0.53 0.536-0.001 0.141-0.057 0.276-0.157 0.375h0.005z"></path>
</symbol>
<symbol id="icon-smartphone" viewBox="0 0 32 32">
<path d="M23 0h-14c-1.654 0-3 1.346-3 3v26c0 1.654 1.346 3 3 3h14c1.654 0 3-1.346 3-3v-26c0-1.654-1.346-3-3-3zM9 2h14c0.552 0 1 0.448 1 1v21h-16v-21c0-0.552 0.448-1 1-1zM23 30h-14c-0.552 0-1-0.448-1-1v-3h16v3c0 0.552-0.448 1-1 1z"></path>
<path d="M10.707 27.478c0.391 0.365 0.391 0.956 0 1.321s-1.024 0.365-1.414 0c-0.391-0.365-0.391-0.956 0-1.321s1.024-0.365 1.414 0z"></path>
</symbol>
<symbol id="icon-envelope" viewBox="0 0 32 32">
<path d="M29 4h-26c-1.654 0-3 1.346-3 3v18c0 1.654 1.346 3 3 3h26c1.654 0 3-1.346 3-3v-18c0-1.654-1.346-3-3-3zM29 6c0.136 0 0.265 0.028 0.383 0.077l-13.383 11.599-13.383-11.599c0.118-0.049 0.247-0.077 0.383-0.077h26zM29 26h-26c-0.552 0-1-0.448-1-1v-16.81l13.345 11.565c0.188 0.163 0.422 0.244 0.655 0.244s0.467-0.081 0.655-0.244l13.345-11.565v16.81c0 0.552-0.448 1-1 1z"></path>
</symbol>
<symbol id="icon-peters" viewBox="0 0 57 32">
<path d="M12.878 11.255h-0.002c-1.279 0-2.316 0.921-2.316 2.058v0.001c0 1.137 1.037 2.058 2.316 2.058h0.002c1.279 0 2.316-0.921 2.316-2.058v-0.001c0-1.137-1.037-2.058-2.316-2.058z"></path>
<path d="M29.971 10.597c-0.004-1.579-0.711-3.092-1.967-4.208s-2.958-1.745-4.735-1.749v0c-1.777 0.003-3.48 0.631-4.737 1.748s-1.964 2.63-1.968 4.209v8.706c0 0 13.405-1.327 13.406-8.704v-0.001z"></path>
<path d="M5.867 22.16c0.003 1.098 0.496 2.151 1.369 2.928s2.058 1.215 3.294 1.218c1.236-0.003 2.42-0.441 3.294-1.217s1.366-1.829 1.37-2.927v-6.057c0 0-9.327 0.924-9.327 6.056zM10.53 23.245c-0.242 0-0.478-0.064-0.678-0.183s-0.357-0.289-0.45-0.487c-0.092-0.198-0.117-0.417-0.069-0.627s0.163-0.404 0.334-0.556c0.171-0.152 0.388-0.255 0.625-0.297s0.482-0.020 0.706 0.062c0.223 0.082 0.414 0.221 0.548 0.4s0.206 0.388 0.206 0.603c0.001 0.143-0.031 0.284-0.092 0.417s-0.151 0.252-0.264 0.354c-0.114 0.101-0.248 0.182-0.397 0.236s-0.308 0.083-0.468 0.083v-0.004z"></path>
<path d="M19.956 22.647h-0.9v0.93h-0.469v-2.275h1.481v0.38h-1.013v0.588h0.9v0.378zM22.209 22.491c0 0.224-0.040 0.42-0.119 0.589s-0.193 0.299-0.341 0.391c-0.147 0.092-0.316 0.137-0.506 0.137-0.189 0-0.357-0.045-0.505-0.136s-0.262-0.22-0.344-0.387c-0.081-0.169-0.122-0.363-0.123-0.581v-0.112c0-0.224 0.040-0.421 0.12-0.591 0.081-0.171 0.195-0.302 0.342-0.392 0.148-0.092 0.317-0.137 0.506-0.137s0.358 0.046 0.505 0.137c0.148 0.091 0.262 0.221 0.342 0.392 0.081 0.17 0.122 0.366 0.122 0.589v0.102zM21.734 22.388c0-0.238-0.043-0.42-0.128-0.544s-0.207-0.186-0.366-0.186c-0.157 0-0.279 0.061-0.364 0.184-0.085 0.122-0.129 0.301-0.13 0.538v0.111c0 0.232 0.043 0.412 0.128 0.541s0.208 0.192 0.369 0.192c0.157 0 0.278-0.061 0.363-0.184 0.084-0.124 0.127-0.304 0.128-0.541v-0.111zM23.73 22.98c0-0.089-0.031-0.156-0.094-0.203-0.062-0.048-0.175-0.098-0.337-0.15-0.163-0.053-0.291-0.105-0.386-0.156-0.258-0.14-0.388-0.328-0.388-0.564 0-0.123 0.034-0.232 0.103-0.328 0.070-0.097 0.169-0.172 0.298-0.227 0.13-0.054 0.276-0.081 0.438-0.081 0.163 0 0.307 0.030 0.434 0.089 0.127 0.058 0.226 0.141 0.295 0.248 0.071 0.107 0.106 0.229 0.106 0.366h-0.469c0-0.104-0.033-0.185-0.098-0.242-0.066-0.058-0.158-0.088-0.277-0.088-0.115 0-0.204 0.024-0.267 0.073-0.064 0.048-0.095 0.111-0.095 0.191 0 0.074 0.037 0.136 0.111 0.186 0.075 0.050 0.185 0.097 0.33 0.141 0.267 0.080 0.461 0.18 0.583 0.298s0.183 0.267 0.183 0.444c0 0.197-0.075 0.352-0.223 0.464-0.149 0.111-0.349 0.167-0.602 0.167-0.175 0-0.334-0.032-0.478-0.095-0.144-0.065-0.254-0.153-0.33-0.264-0.075-0.111-0.112-0.241-0.112-0.388h0.47c0 0.251 0.15 0.377 0.45 0.377 0.111 0 0.198-0.022 0.261-0.067 0.063-0.046 0.094-0.109 0.094-0.191zM26.231 21.682h-0.697v1.895h-0.469v-1.895h-0.688v-0.38h1.853v0.38zM27.869 22.591h-0.9v0.609h1.056v0.377h-1.525v-2.275h1.522v0.38h-1.053v0.542h0.9v0.367zM29.142 22.744h-0.373v0.833h-0.469v-2.275h0.845c0.269 0 0.476 0.060 0.622 0.18s0.219 0.289 0.219 0.508c0 0.155-0.034 0.285-0.102 0.389-0.067 0.103-0.168 0.185-0.305 0.247l0.492 0.93v0.022h-0.503l-0.427-0.833zM28.769 22.365h0.378c0.118 0 0.209-0.030 0.273-0.089 0.065-0.060 0.097-0.143 0.097-0.248 0-0.107-0.031-0.192-0.092-0.253-0.060-0.061-0.154-0.092-0.28-0.092h-0.377v0.683zM31.609 22.775v0.802h-0.469v-2.275h0.888c0.171 0 0.321 0.031 0.45 0.094 0.13 0.063 0.23 0.152 0.3 0.267 0.070 0.115 0.105 0.245 0.105 0.392 0 0.223-0.077 0.399-0.23 0.528-0.152 0.128-0.363 0.192-0.633 0.192h-0.411zM31.609 22.396h0.419c0.124 0 0.218-0.029 0.283-0.088 0.066-0.058 0.098-0.142 0.098-0.25 0-0.111-0.033-0.202-0.098-0.27s-0.156-0.104-0.272-0.106h-0.43v0.714zM34.575 22.591h-0.9v0.609h1.056v0.377h-1.525v-2.275h1.522v0.38h-1.053v0.542h0.9v0.367zM36.75 21.682h-0.697v1.895h-0.469v-1.895h-0.688v-0.38h1.853v0.38zM38.387 22.591h-0.9v0.609h1.056v0.377h-1.525v-2.275h1.522v0.38h-1.053v0.542h0.9v0.367zM39.661 22.744h-0.373v0.833h-0.469v-2.275h0.845c0.269 0 0.476 0.060 0.622 0.18s0.219 0.289 0.219 0.508c0 0.155-0.034 0.285-0.102 0.389-0.067 0.103-0.168 0.185-0.305 0.247l0.492 0.93v0.022h-0.503l-0.427-0.833zM39.287 22.365h0.378c0.118 0 0.209-0.030 0.273-0.089 0.065-0.060 0.097-0.143 0.097-0.248 0-0.107-0.031-0.192-0.092-0.253-0.060-0.061-0.154-0.092-0.28-0.092h-0.377v0.683zM42.042 22.98c0-0.089-0.031-0.156-0.094-0.203-0.063-0.048-0.175-0.098-0.337-0.15-0.163-0.053-0.291-0.105-0.386-0.156-0.258-0.14-0.387-0.328-0.387-0.564 0-0.123 0.034-0.232 0.103-0.328 0.070-0.097 0.169-0.172 0.298-0.227s0.276-0.081 0.438-0.081c0.163 0 0.307 0.030 0.434 0.089 0.127 0.058 0.225 0.141 0.295 0.248s0.106 0.229 0.106 0.366h-0.469c0-0.104-0.033-0.185-0.098-0.242-0.066-0.058-0.158-0.088-0.277-0.088-0.115 0-0.204 0.024-0.267 0.073-0.064 0.048-0.095 0.111-0.095 0.191 0 0.074 0.037 0.136 0.111 0.186 0.075 0.050 0.185 0.097 0.33 0.141 0.267 0.080 0.461 0.18 0.583 0.298s0.183 0.267 0.183 0.444c0 0.197-0.075 0.352-0.223 0.464-0.149 0.111-0.349 0.167-0.602 0.167-0.175 0-0.334-0.032-0.478-0.095-0.144-0.065-0.254-0.153-0.33-0.264s-0.113-0.241-0.113-0.388h0.47c0 0.251 0.15 0.377 0.45 0.377 0.111 0 0.198-0.022 0.261-0.067 0.063-0.046 0.094-0.109 0.094-0.191z"></path>
</symbol>
<symbol id="icon-person" viewBox="0 0 32 32">
<path fill="#1e1e1e" style="fill: var(--color1, #1e1e1e)" d="M0 0h32v32h-32v-32z"></path>
<path fill="#fff" style="fill: var(--color2, #fff)" d="M-1045.333-577.778h2844.444v1820.444h-2844.444v-1820.444z"></path>
<path fill="#c4c4c4" style="fill: var(--color3, #c4c4c4)" d="M-1045.333-435.556h2844.444v1066.667h-2844.444v-1066.667z"></path>
<path fill="#000" style="fill: var(--color4, #000)" d="M-1045.333-435.556h2844.444v1066.667h-2844.444v-1066.667z"></path>
<path fill="#2f303a" style="fill: var(--color5, #2f303a)" opacity="0.4" d="M-1045.333-435.556h2844.444v1066.667h-2844.444v-1066.667z"></path>
<path fill="#fff" style="fill: var(--color2, #fff)" d="M-121.29-10.313v10.313h-29.639v-10.313h29.639zM-146.155-55.611v55.611h-13.406v-55.611h13.406zM-125.11-33.535v9.969h-25.819v-9.969h25.819zM-121.176-55.611v10.351h-29.753v-10.351h29.753zM-89.364-50.875h13.903c3.361 0 6.455 0.548 9.281 1.642s5.284 2.661 7.372 4.698c2.088 2.037 3.705 4.494 4.851 7.372s1.719 6.111 1.719 9.701c0 3.463-0.573 6.595-1.719 9.396s-2.763 5.194-4.851 7.181c-2.088 1.986-4.545 3.514-7.372 4.583-2.826 1.044-5.92 1.566-9.281 1.566h-13.903c-3.386 0-6.506-0.522-9.358-1.566-2.852-1.069-5.334-2.584-7.448-4.545-2.088-1.986-3.718-4.367-4.889-7.142-1.146-2.801-1.719-5.933-1.719-9.396 0-3.59 0.573-6.824 1.719-9.701 1.171-2.877 2.801-5.347 4.889-7.41 2.113-2.063 4.596-3.641 7.448-4.736s5.971-1.642 9.358-1.642zM-89.364-40.104c-2.037 0-3.87 0.458-5.5 1.375s-2.915 2.317-3.858 4.201c-0.942 1.859-1.413 4.24-1.413 7.142 0 2.012 0.28 3.769 0.84 5.271s1.337 2.737 2.33 3.705c0.993 0.968 2.139 1.693 3.438 2.177s2.686 0.726 4.163 0.726h13.979c1.986 0 3.769-0.433 5.347-1.299 1.579-0.891 2.826-2.228 3.743-4.010 0.942-1.782 1.413-3.998 1.413-6.646 0-2.164-0.267-4.036-0.802-5.615s-1.286-2.89-2.254-3.934c-0.942-1.044-2.050-1.82-3.323-2.33s-2.648-0.764-4.125-0.764h-13.979zM-75.996-57.903v60.194h-12.871v-60.194h12.871zM-2.591-10.313v10.313h-29.639v-10.313h29.639zM-27.456-55.611v55.611h-13.406v-55.611h13.406zM-6.411-33.535v9.969h-25.82v-9.969h25.82zM-2.477-55.611v10.351h-29.754v-10.351h29.754zM20.894-55.611v55.611h-13.368v-55.611h13.368zM52.977-55.611l-19.976 33.611h-14.438l-1.604-12.108h9.128l10.694-21.503h16.195zM39.074 0l-13.024-24.33 9.74-8.976 19.097 33.306h-15.812zM89.868-55.611v55.611h-13.406v-55.611h13.406zM106.597-55.611v10.351h-46.483v-10.351h46.483zM129.624-20.51l19.976-35.101h13.406v55.611h-13.406v-35.063l-19.976 35.063h-13.406v-55.611h13.406v35.101zM198.599-23.642h-14.324l-0.076-8.785h11.611c2.089 0 3.756-0.229 5.004-0.688 1.248-0.484 2.151-1.184 2.711-2.101 0.587-0.917 0.878-2.063 0.878-3.438 0-1.579-0.292-2.852-0.878-3.819-0.585-0.968-1.515-1.668-2.788-2.101-1.248-0.458-2.864-0.687-4.852-0.687h-6.569v45.26h-13.406v-55.611h19.975c3.438 0 6.507 0.318 9.205 0.955 2.699 0.611 4.99 1.553 6.875 2.826 1.911 1.273 3.362 2.877 4.356 4.812 0.992 1.91 1.488 4.163 1.488 6.761 0 2.266-0.484 4.392-1.451 6.379s-2.585 3.603-4.85 4.851c-2.242 1.222-5.31 1.859-9.205 1.91l-3.705 3.476zM198.064 0h-17.035l4.583-10.313h12.452c1.833 0 3.298-0.28 4.393-0.84 1.12-0.586 1.922-1.35 2.405-2.292 0.51-0.968 0.764-2.037 0.764-3.208 0-1.426-0.242-2.661-0.725-3.705-0.459-1.044-1.196-1.846-2.215-2.406-1.019-0.586-2.382-0.878-4.087-0.878h-11.268l0.076-8.785h13.483l3.132 3.514c3.717-0.153 6.658 0.369 8.821 1.566 2.19 1.197 3.756 2.775 4.699 4.736s1.413 4.011 1.413 6.149c0 3.641-0.789 6.684-2.368 9.128-1.554 2.444-3.883 4.278-6.99 5.5-3.106 1.222-6.951 1.833-11.534 1.833zM268.567-33.535v10.313h-28.532v-10.313h28.532zM244.503-55.611v55.611h-13.406v-55.611h13.406zM277.58-55.611v55.611h-13.369v-55.611h13.369zM305.038-55.611v55.611h-13.369v-55.611h13.369zM365.529-18.868h-13.828v-10.351h13.828c1.884 0 3.412-0.318 4.583-0.955s2.023-1.515 2.558-2.635c0.56-1.146 0.841-2.432 0.841-3.858 0-1.528-0.281-2.941-0.841-4.24-0.535-1.298-1.387-2.343-2.558-3.132-1.172-0.815-2.699-1.222-4.583-1.222h-8.786v45.26h-13.406v-55.611h22.192c4.455 0 8.288 0.815 11.495 2.444 3.234 1.63 5.717 3.87 7.449 6.722 1.732 2.826 2.597 6.060 2.597 9.701 0 3.59-0.866 6.722-2.597 9.396s-4.215 4.762-7.449 6.264c-3.207 1.477-7.040 2.215-11.495 2.215zM413.228-55.611v55.611h-13.367v-55.611h13.367zM427.051-55.611h13.444v45.299h13.828v-45.299h13.406v45.299h13.636v-45.299h13.367v55.611h-67.68v-55.611zM545.945-10.313v10.313h-29.639v-10.313h29.639zM521.081-55.611v55.611h-13.406v-55.611h13.406zM542.126-33.535v9.969h-25.82v-9.969h25.82zM546.060-55.611v10.351h-29.755v-10.351h29.755zM593.607-33.535v10.313h-28.532v-10.313h28.532zM569.545-55.611v55.611h-13.406v-55.611h13.406zM602.62-55.611v55.611h-13.367v-55.611h13.367zM653.301-33.535v10.313h-28.532v-10.313h28.532zM629.237-55.611v55.611h-13.406v-55.611h13.406zM662.315-55.611v55.611h-13.369v-55.611h13.369zM704.476-19.517h-14.857l-3.973-1.642c-4.532-1.426-7.982-3.539-10.35-6.34-2.368-2.826-3.552-6.429-3.552-10.809 0-3.82 0.853-7.002 2.558-9.549 1.707-2.572 4.126-4.507 7.257-5.806 3.132-1.299 6.85-1.948 11.154-1.948h20.167v55.611h-13.445v-45.26h-6.722c-2.674 0-4.61 0.7-5.806 2.101-1.196 1.375-1.796 3.386-1.796 6.035 0 2.037 0.281 3.641 0.841 4.812 0.587 1.171 1.438 2.012 2.56 2.521 1.12 0.484 2.521 0.726 4.201 0.726h11.687l0.076 9.549zM694.164-24.521l-11.801 24.521h-14.59l11.648-24.521h14.743zM793.46-10.313v10.313h-39.072v-10.313h39.072zM758.818-10.313v23.948h-12.412l-0.917-23.948h13.33zM802.588-10.313l-1.413 23.986h-12.030v-23.986h13.444zM787.616-55.611v10.351h-27.92v-10.351h27.92zM796.631-55.611v55.611h-13.33v-55.611h13.33zM758.818-55.611h13.369l-1.643 22.802c-0.281 3.896-0.725 7.282-1.337 10.16s-1.337 5.36-2.178 7.448c-0.839 2.088-1.756 3.883-2.75 5.385-0.992 1.502-2.036 2.814-3.131 3.934-1.070 1.12-2.139 2.139-3.209 3.056s-2.101 1.859-3.093 2.826h-8.135v-10.313h2.674c0.789-0.56 1.579-1.311 2.368-2.253 0.814-0.968 1.579-2.279 2.292-3.934s1.337-3.807 1.87-6.455c0.535-2.648 0.942-5.933 1.223-9.854l1.68-22.802zM850.251-55.611v10.351h-28.722v-10.351h28.722zM859.303-55.611v55.611h-13.406v-55.611h13.406zM820.612-55.611h13.33l-1.451 28.264c-0.229 4.278-0.663 7.97-1.3 11.076-0.636 3.081-1.488 5.678-2.558 7.792-1.070 2.088-2.356 3.756-3.858 5.003s-3.246 2.139-5.232 2.674c-1.961 0.535-4.164 0.802-6.608 0.802h-3.246v-10.313l1.451-0.153c1.172-0.127 2.203-0.446 3.093-0.955 0.892-0.535 1.655-1.324 2.292-2.368 0.663-1.044 1.211-2.381 1.643-4.010 0.434-1.63 0.777-3.603 1.031-5.92 0.281-2.343 0.471-5.080 0.574-8.212l0.839-23.681zM901.312-19.517h-14.857l-3.973-1.642c-4.532-1.426-7.982-3.539-10.35-6.34-2.368-2.826-3.552-6.429-3.552-10.809 0-3.82 0.853-7.002 2.56-9.549 1.705-2.572 4.124-4.507 7.257-5.806 3.131-1.299 6.848-1.948 11.152-1.948h20.167v55.611h-13.445v-45.26h-6.722c-2.674 0-4.608 0.7-5.806 2.101-1.196 1.375-1.794 3.386-1.794 6.035 0 2.037 0.279 3.641 0.839 4.812 0.587 1.171 1.438 2.012 2.56 2.521 1.12 0.484 2.521 0.726 4.201 0.726h11.687l0.076 9.549zM890.999-24.521l-11.801 24.521h-14.59l11.648-24.521h14.743zM38.611 83.024h-14.323l-0.076-8.785h11.611c2.088 0 3.756-0.229 5.004-0.688 1.248-0.484 2.152-1.184 2.712-2.101 0.586-0.917 0.878-2.063 0.878-3.438 0-1.579-0.293-2.852-0.878-3.819s-1.515-1.668-2.788-2.101c-1.248-0.458-2.865-0.687-4.851-0.687h-6.569v45.26h-13.406v-55.611h19.976c3.438 0 6.506 0.318 9.205 0.955 2.699 0.611 4.991 1.553 6.875 2.826 1.91 1.273 3.361 2.877 4.354 4.812 0.993 1.91 1.489 4.163 1.489 6.761 0 2.266-0.484 4.392-1.451 6.379s-2.584 3.603-4.851 4.851c-2.241 1.222-5.309 1.859-9.205 1.91l-3.705 3.476zM38.077 106.667h-17.035l4.583-10.313h12.451c1.833 0 3.297-0.28 4.392-0.84 1.12-0.586 1.922-1.35 2.406-2.292 0.509-0.968 0.764-2.037 0.764-3.208 0-1.426-0.242-2.661-0.726-3.705-0.458-1.044-1.197-1.846-2.215-2.406-1.019-0.586-2.381-0.878-4.087-0.878h-11.267l0.076-8.785h13.483l3.132 3.514c3.718-0.153 6.658 0.369 8.823 1.566 2.19 1.197 3.756 2.775 4.698 4.736s1.413 4.011 1.413 6.149c0 3.641-0.789 6.684-2.368 9.129-1.553 2.444-3.883 4.278-6.989 5.5s-6.951 1.833-11.535 1.833zM94.676 62.743l-13.559 43.924h-14.399l20.434-55.611h9.128l-1.604 11.687zM105.905 106.667l-13.597-43.924-1.757-11.687h9.243l20.549 55.611h-14.438zM105.371 85.927v10.351h-28.531v-10.351h28.531zM128.817 51.056h13.444v45.298h13.827v-45.298h13.406v45.298h13.636v-45.298h13.367v55.611h-67.68v-55.611zM256.498 77.753v2.254c0 4.252-0.599 8.072-1.796 11.458-1.172 3.361-2.839 6.238-5.004 8.632-2.164 2.368-4.724 4.189-7.676 5.462-2.955 1.248-6.213 1.871-9.778 1.871-3.591 0-6.875-0.624-9.854-1.871-2.953-1.273-5.525-3.094-7.716-5.462-2.164-2.394-3.845-5.271-5.042-8.632-1.172-3.386-1.756-7.206-1.756-11.458v-2.254c0-4.252 0.585-8.072 1.756-11.458 1.196-3.386 2.866-6.264 5.004-8.632 2.164-2.393 4.724-4.214 7.676-5.462 2.98-1.273 6.263-1.91 9.854-1.91 3.564 0 6.825 0.636 9.778 1.91 2.98 1.248 5.55 3.068 7.716 5.462 2.164 2.368 3.845 5.245 5.042 8.632s1.796 7.206 1.796 11.458zM242.9 80.007v-2.33c0-2.75-0.242-5.169-0.725-7.257-0.459-2.113-1.147-3.883-2.062-5.309-0.917-1.426-2.050-2.495-3.399-3.208-1.324-0.739-2.839-1.108-4.546-1.108-1.783 0-3.335 0.369-4.66 1.108-1.324 0.713-2.432 1.782-3.323 3.208-0.892 1.426-1.566 3.196-2.025 5.309-0.432 2.088-0.649 4.507-0.649 7.257v2.33c0 2.725 0.217 5.143 0.649 7.257 0.459 2.088 1.132 3.858 2.025 5.309 0.916 1.451 2.037 2.546 3.36 3.285 1.349 0.739 2.916 1.108 4.699 1.108 1.707 0 3.221-0.369 4.546-1.108 1.323-0.738 2.43-1.833 3.323-3.285 0.916-1.451 1.604-3.221 2.062-5.309 0.484-2.113 0.725-4.532 0.725-7.257zM305.611 51.056v10.351h-24.178v45.26h-13.367v-55.611h37.545zM360.912 77.753v2.254c0 4.252-0.599 8.072-1.796 11.458-1.172 3.361-2.839 6.238-5.004 8.632-2.164 2.368-4.722 4.189-7.676 5.462-2.953 1.248-6.213 1.871-9.778 1.871-3.589 0-6.875-0.624-9.854-1.871-2.953-1.273-5.525-3.094-7.716-5.462-2.164-2.394-3.845-5.271-5.042-8.632-1.172-3.386-1.756-7.206-1.756-11.458v-2.254c0-4.252 0.585-8.072 1.756-11.458 1.196-3.386 2.866-6.264 5.004-8.632 2.164-2.393 4.724-4.214 7.676-5.462 2.98-1.273 6.265-1.91 9.854-1.91 3.564 0 6.825 0.636 9.778 1.91 2.98 1.248 5.55 3.068 7.716 5.462 2.164 2.368 3.845 5.245 5.042 8.632s1.796 7.206 1.796 11.458zM347.314 80.007v-2.33c0-2.75-0.242-5.169-0.725-7.257-0.459-2.113-1.147-3.883-2.062-5.309-0.917-1.426-2.050-2.495-3.399-3.208-1.324-0.739-2.839-1.108-4.546-1.108-1.783 0-3.335 0.369-4.66 1.108-1.324 0.713-2.432 1.782-3.323 3.208s-1.566 3.196-2.025 5.309c-0.432 2.088-0.649 4.507-0.649 7.257v2.33c0 2.725 0.217 5.143 0.649 7.257 0.459 2.088 1.134 3.858 2.025 5.309 0.916 1.451 2.037 2.546 3.36 3.285 1.351 0.739 2.916 1.108 4.699 1.108 1.707 0 3.221-0.369 4.546-1.108 1.323-0.738 2.432-1.833 3.323-3.285 0.916-1.451 1.604-3.221 2.062-5.309 0.484-2.113 0.725-4.532 0.725-7.257zM434.274 51.056v10.351h-24.178v45.26h-13.367v-55.611h37.545zM405.131 70.191h11.956c4.507 0 8.428 0.751 11.764 2.254 3.337 1.502 5.908 3.603 7.716 6.302 1.833 2.699 2.75 5.857 2.75 9.472 0 2.725-0.523 5.22-1.566 7.486-1.044 2.241-2.546 4.189-4.507 5.844-1.936 1.63-4.265 2.89-6.99 3.781-2.724 0.891-5.78 1.337-9.166 1.337h-20.32v-55.611h13.445v45.298h6.875c1.909 0 3.515-0.369 4.812-1.108 1.324-0.739 2.331-1.719 3.017-2.941 0.688-1.248 1.031-2.635 1.031-4.163 0-1.477-0.343-2.788-1.031-3.934-0.686-1.146-1.692-2.050-3.017-2.712-1.298-0.662-2.903-0.993-4.812-0.993h-11.956v-10.313zM464.558 51.056v55.611h-13.369v-55.611h13.369zM501.257 80.045h-9.586v-6.722h7.104c1.655 0 2.992-0.267 4.011-0.802 1.019-0.56 1.769-1.35 2.252-2.368 0.485-1.044 0.727-2.266 0.727-3.667 0-1.044-0.281-2.012-0.841-2.903-0.535-0.891-1.362-1.604-2.484-2.139-1.12-0.535-2.546-0.802-4.277-0.802-1.324 0-2.533 0.217-3.628 0.649s-1.961 1.069-2.597 1.91c-0.636 0.815-0.955 1.833-0.955 3.055h-13.367c0-2.495 0.548-4.723 1.641-6.684 1.095-1.961 2.585-3.628 4.469-5.004 1.909-1.375 4.1-2.419 6.569-3.132 2.496-0.739 5.118-1.108 7.868-1.108 3.184 0 6.060 0.344 8.633 1.031 2.571 0.662 4.773 1.655 6.606 2.979 1.86 1.324 3.285 2.979 4.279 4.965 0.992 1.961 1.49 4.239 1.49 6.837 0 1.91-0.434 3.705-1.3 5.385-0.841 1.681-2.050 3.157-3.628 4.431s-3.476 2.279-5.691 3.017c-2.19 0.713-4.622 1.070-7.296 1.070zM491.671 76.646h9.586c2.98 0 5.628 0.318 7.945 0.955 2.318 0.637 4.277 1.566 5.883 2.788 1.628 1.222 2.864 2.737 3.705 4.545 0.839 1.782 1.26 3.832 1.26 6.149 0 2.597-0.548 4.914-1.643 6.951-1.070 2.012-2.585 3.718-4.546 5.118s-4.277 2.457-6.951 3.17c-2.647 0.713-5.563 1.070-8.747 1.070-2.571 0-5.131-0.306-7.676-0.917-2.521-0.637-4.812-1.604-6.875-2.903-2.064-1.299-3.717-2.967-4.965-5.004-1.223-2.037-1.835-4.481-1.835-7.333h13.445c0 1.12 0.331 2.126 0.994 3.017 0.686 0.891 1.628 1.591 2.825 2.101 1.198 0.509 2.56 0.764 4.087 0.764 1.783 0 3.298-0.28 4.546-0.84 1.273-0.56 2.24-1.324 2.903-2.292 0.661-0.968 0.992-2.037 0.992-3.208 0-1.375-0.165-2.534-0.496-3.476-0.331-0.967-0.828-1.744-1.49-2.33-0.661-0.611-1.49-1.044-2.482-1.299-0.969-0.28-2.089-0.42-3.362-0.42h-7.104v-6.608zM570.117 73.132v10.313h-28.532v-10.313h28.532zM546.055 51.056v55.611h-13.406v-55.611h13.406zM579.131 51.056v55.611h-13.367v-55.611h13.367zM630.613 96.354v10.313h-29.639v-10.313h29.639zM605.749 51.056v55.611h-13.406v-55.611h13.406zM626.793 73.132v9.969h-25.819v-9.969h25.819zM630.727 51.056v10.351h-29.753v-10.351h29.753zM672.432 87.837h13.367c-0.178 3.87-1.221 7.282-3.132 10.236-1.909 2.954-4.556 5.258-7.943 6.913-3.362 1.63-7.333 2.444-11.916 2.444-3.719 0-7.042-0.624-9.97-1.871-2.903-1.248-5.372-3.043-7.41-5.385-2.011-2.343-3.552-5.182-4.62-8.517-1.045-3.336-1.566-7.091-1.566-11.267v-3.017c0-4.176 0.548-7.932 1.643-11.267 1.12-3.361 2.699-6.213 4.736-8.556 2.062-2.368 4.532-4.176 7.41-5.424 2.876-1.248 6.073-1.871 9.586-1.871 4.839 0 8.924 0.866 12.261 2.597 3.335 1.732 5.92 4.112 7.753 7.142 1.833 3.005 2.916 6.429 3.246 10.274h-13.367c-0.052-2.088-0.409-3.832-1.070-5.233-0.661-1.426-1.707-2.495-3.132-3.208s-3.323-1.069-5.691-1.069c-1.655 0-3.093 0.306-4.316 0.917-1.221 0.611-2.24 1.579-3.054 2.903-0.816 1.324-1.426 3.043-1.835 5.156-0.38 2.088-0.572 4.609-0.572 7.563v3.094c0 2.954 0.178 5.475 0.535 7.563 0.356 2.088 0.93 3.794 1.719 5.118s1.808 2.304 3.054 2.941c1.275 0.611 2.827 0.917 4.661 0.917 2.036 0 3.755-0.318 5.156-0.955 1.401-0.662 2.482-1.655 3.246-2.979 0.764-1.35 1.172-3.068 1.223-5.156zM714.441 85.698l13.14-34.642h14.169l-18.754 44.114c-0.713 1.63-1.54 3.183-2.482 4.66-0.917 1.477-2.012 2.788-3.285 3.934-1.248 1.146-2.724 2.050-4.43 2.712s-3.705 0.993-5.996 0.993c-0.56 0-1.248-0.013-2.062-0.038-0.789 0-1.477-0.013-2.062-0.038l-0.229-10.389c0.331 0.076 0.789 0.127 1.374 0.153 0.587 0 1.006 0 1.26 0 1.529 0 2.738-0.178 3.628-0.535 0.892-0.382 1.591-0.942 2.101-1.681 0.535-0.764 0.994-1.732 1.374-2.903l2.254-6.34zM706.992 51.056l11.383 24.139 4.354 15.431h-9.625l-20.357-39.569h14.245z"></path>
<path fill="#000" style="fill: var(--color4, #000)" opacity="0.2" d="M-1045.333-577.778h2844.444v1820.444h-2844.444v-1820.444z"></path>
<path fill="#fff" style="fill: var(--color2, #fff)" d="M-92.444-177.778c0-3.927 3.184-7.111 7.111-7.111h924.444c3.927 0 7.111 3.184 7.111 7.111v1018.667c0 3.927-3.184 7.111-7.111 7.111h-924.444c-3.927 0-7.111-3.184-7.111-7.111v-1018.667z"></path>
<path fill="none" stroke="#212121" style="stroke: var(--color6, #212121)" stroke-linejoin="miter" stroke-linecap="butt" stroke-miterlimit="4" stroke-width="1.7778" d="M-14.222-18.667h782.222c3.436 0 6.222 2.786 6.222 6.222v56.889c0 3.436-2.786 6.222-6.222 6.222h-782.222c-3.436 0-6.222-2.786-6.222-6.222v-56.889c0-3.436 2.786-6.222 6.222-6.222z"></path>
<path fill="#212121" style="fill: var(--color6, #212121)" d="M16 16c2.947 0 5.333-2.387 5.333-5.333s-2.387-5.333-5.333-5.333c-2.947 0-5.333 2.387-5.333 5.333s2.387 5.333 5.333 5.333zM16 18.667c-3.56 0-10.667 1.787-10.667 5.333v1.333c0 0.733 0.6 1.333 1.333 1.333h18.667c0.733 0 1.333-0.6 1.333-1.333v-1.333c0-3.547-7.107-5.333-10.667-5.333z"></path>
</symbol>
<symbol id="icon-close" viewBox="0 0 32 32">
<path d="M26.667 7.303l-1.97-1.97-7.808 7.808-7.808-7.808-1.97 1.97 7.808 7.808-7.808 7.808 1.97 1.97 7.808-7.808 7.808 7.808 1.97-1.97-7.808-7.808 7.808-7.808z"></path>
</symbol>
</defs>
</svg>

